<svg xmlns="http://www.w3.org/2000/svg" width="17.999" height="17.998" viewBox="0 0 17.999 17.998">
  <g id="Imprimir" transform="translate(-393.667 9.334)">
    <path id="Caminho_964" data-name="Caminho 964" d="M189.667,31.566a.9.9,0,0,1,.9-.9h9.72a.9.9,0,0,1,.9.9v5.67a.9.9,0,1,1-1.8,0v-4.77h-7.92v4.77a.9.9,0,1,1-1.8,0Z" transform="translate(207.24 -40)" fill="#0578be" fill-rule="evenodd"/>
    <path id="Caminho_965" data-name="Caminho 965" d="M189.187,37.716a.721.721,0,0,0-.72.72v4.05a.721.721,0,0,0,.72.72h1.62a.9.9,0,0,1,0,1.8h-1.62a2.519,2.519,0,0,1-2.52-2.52v-4.05a2.519,2.519,0,0,1,2.52-2.52h12.959a2.519,2.519,0,0,1,2.52,2.52v4.05a2.519,2.519,0,0,1-2.52,2.52h-1.62a.9.9,0,0,1,0-1.8h1.62a.721.721,0,0,0,.72-.72v-4.05a.721.721,0,0,0-.72-.72Z" transform="translate(207 -39.58)" fill="#0578be" fill-rule="evenodd"/>
    <path id="Caminho_966" data-name="Caminho 966" d="M189.667,40.566a.9.9,0,0,1,.9-.9h9.72a.9.9,0,0,1,.9.9v6.48a.9.9,0,0,1-.9.9h-9.72a.9.9,0,0,1-.9-.9Zm1.8.9v4.68h7.92v-4.68Z" transform="translate(207.24 -39.28)" fill="#0578be" fill-rule="evenodd"/>
  </g>
</svg>
