<svg xmlns="http://www.w3.org/2000/svg" width="22.482" height="22.32" viewBox="0 0 22.482 22.32">
  <path id="Notificações" d="M17.241,4.5a8.319,8.319,0,0,0-5.564,2.08,6.772,6.772,0,0,0-2.3,5.023,12.845,12.845,0,0,1-1.549,6.744,6.082,6.082,0,0,1-.988,1.263,3.28,3.28,0,0,1-.286.245c-.03.023-.05.036-.059.042l0,0a.965.965,0,0,0-.439,1.13,1.116,1.116,0,0,0,1.076.721H27.358a1.116,1.116,0,0,0,1.076-.721.965.965,0,0,0-.439-1.13l0,0c-.009-.006-.029-.02-.059-.042a3.272,3.272,0,0,1-.286-.245,6.08,6.08,0,0,1-.988-1.263A12.844,12.844,0,0,1,25.11,11.6a6.771,6.771,0,0,0-2.3-5.023A8.319,8.319,0,0,0,17.241,4.5Zm7.7,15.221H9.54q.128-.19.257-.4A14.677,14.677,0,0,0,11.621,11.6a4.837,4.837,0,0,1,1.646-3.588,6.058,6.058,0,0,1,7.949,0A4.837,4.837,0,0,1,22.862,11.6a14.677,14.677,0,0,0,1.823,7.716Q24.814,19.531,24.942,19.721Zm-8.673,4.564a1.193,1.193,0,0,0-1.536-.369.963.963,0,0,0-.408,1.387,3.23,3.23,0,0,0,1.234,1.11,3.69,3.69,0,0,0,3.366,0,3.23,3.23,0,0,0,1.234-1.11.963.963,0,0,0-.408-1.387,1.193,1.193,0,0,0-1.536.369,1.076,1.076,0,0,1-.411.37,1.23,1.23,0,0,1-1.122,0A1.077,1.077,0,0,1,16.269,24.285Z" transform="translate(-6 -4.5)" fill="#0578be" fill-rule="evenodd"/>
</svg>
