<svg xmlns="http://www.w3.org/2000/svg" width="17.998" height="17.998" viewBox="0 0 17.998 17.998">
  <path id="Salvar" d="M336.2,29.3a.9.9,0,0,0-.9.9V42.8a.9.9,0,0,0,.9.9h.9V37.4a.9.9,0,0,1,.9-.9h9a.9.9,0,0,1,.9.9v6.3h.9a.9.9,0,0,0,.9-.9V33.272L345.725,29.3H338.9V32h6.3a.9.9,0,0,1,0,1.8H338a.9.9,0,0,1-.9-.9V29.3Zm1.8-1.8h-1.8a2.7,2.7,0,0,0-2.7,2.7V42.8a2.7,2.7,0,0,0,2.7,2.7h12.6a2.7,2.7,0,0,0,2.7-2.7V32.9a.9.9,0,0,0-.264-.636l-4.5-4.5a.9.9,0,0,0-.636-.264Zm.9,10.8v5.4h7.2V38.3Z" transform="translate(-333.5 -27.5)" fill="#0578be" fill-rule="evenodd"/>
</svg>
